<?xml version="1.0" encoding="utf-8"?>
<!-- Generator: Adobe Illustrator 22.1.0, SVG Export Plug-In . SVG Version: 6.00 Build 0)  -->
<svg version="1.1" id="Layer_1" xmlns="http://www.w3.org/2000/svg" xmlns:xlink="http://www.w3.org/1999/xlink" x="0px" y="0px"
	 viewBox="0 0 55.9 44" style="enable-background:new 0 0 55.9 44;" xml:space="preserve">
<style type="text/css">
	.st0{fill:#FFFFFF;}
</style>
<g>
	<g>
		<path class="st0" d="M28,37.1c-6.4,1.8-11.7,3.3-18,1.4c-2.3-0.7-6-1.8-8.4-5.3c-0.8-1.1-1.3-2.2-1.6-3.4v8.5
			C0,41.4,2.6,44,5.8,44h44.4c3.2,0,5.8-2.6,5.8-5.8V22c-2.3,1.9-5.1,4-8.3,6C37.9,34.2,30,36.5,28,37.1z"/>
		<path class="st0" d="M23.5,0C21,0.7,19,1.5,17.4,2.3c-2.5,1.1-6.3,2.9-10.2,6.7c-1.8,1.7-3.9,3.7-5.4,6.9c-0.2,0.4-1.1,2.4-1.8,5
			V5.8C0,2.6,2.6,0,5.8,0L23.5,0z"/>
	</g>
	<path class="st0" d="M55.9,3.8c-0.7-0.9-1.5-1.6-2.5-2.1C49.4-0.6,41.7,0,38.7,0.4c-6.1,0.7-10.3,2.8-15,5c-5.6,2.7-8.2,5-9.3,6
		c-2.6,2.4-5,4.7-5.6,8.3c-0.1,0.7-0.7,4.3,1.5,7.5c1.9,2.7,4.7,3.5,6.5,4.1c5.1,1.5,9.6,0.2,12.9-0.8c1.8-0.6,1.6,0,15.1-7.5
		c0.2-0.1,4.8-3.3,9.7-7.8c0.5-0.5,1-0.9,1.4-1.3V3.8z"/>
</g>
</svg>
