<?xml version="1.0" encoding="utf-8"?>
<!-- Generator: Adobe Illustrator 22.1.0, SVG Export Plug-In . SVG Version: 6.00 Build 0)  -->
<svg version="1.1" id="Layer_1" xmlns="http://www.w3.org/2000/svg" xmlns:xlink="http://www.w3.org/1999/xlink" x="0px" y="0px"
	 viewBox="0 0 144.1 113.7" style="enable-background:new 0 0 144.1 113.7;" xml:space="preserve">
<style type="text/css">
	.st0{fill:#FFFFFF;}
	.st1{clip-path:url(#SVGID_3_);}
	.st2{clip-path:url(#SVGID_4_);}
</style>
<g>
	<g>
		<path class="st0" d="M6.7,88.9c-0.8-1.1-1.6-2.2-2.3-3.3l0,0c0,1.1,0,2.6,0,3.9v6.3H1.2V80.1h3.3l4.6,6.6l4.6-6.6H17v15.6h-3.4
			v-6.3c0-1.3,0-2.8,0-3.9l0,0c-0.7,1.1-1.5,2.2-2.3,3.3L9,92.2L6.7,88.9z"/>
		<path class="st0" d="M19.8,80.1h9.6v3h-6.2v3.1h5.3v2.8h-5.3v3.7h6.4v3h-9.9V80.1z"/>
		<path class="st0" d="M35.9,83.1h-5v-3h13.5v3h-5v12.6h-3.4V83.1z"/>
		<path class="st0" d="M46.1,80.1H51c1.9,0,3.6,0.3,4.9,1c1.1,0.7,1.9,1.9,1.9,3.7c0,2-1.1,3.6-3.2,4.3l4.4,6.6H55l-3.9-6.2h-1.5
			v6.2h-3.4V80.1z M51.3,87c0.9,0,1.6-0.1,2.2-0.4c0.6-0.3,0.9-0.8,0.9-1.6c0-0.7-0.3-1.2-0.9-1.5c-0.5-0.3-1.4-0.4-2.6-0.4h-1.3V87
			H51.3z"/>
		<path class="st0" d="M59.5,88c0-4.5,3.5-8,8.1-8c4.6,0,8.1,3.5,8.1,8s-3.5,8-8.1,8C63,96,59.5,92.5,59.5,88z M72.4,88
			c0-2.8-2-4.9-4.7-4.9c-2.7,0-4.7,2.2-4.7,4.9c0,2.8,2,4.9,4.7,4.9C70.3,92.9,72.4,90.7,72.4,88z"/>
		<path class="st0" d="M82.1,85.8c-0.8-1.1-1.6-2.3-2.3-3.4l0,0c0,1.3,0,2.6,0,4v9.4h-1.3V80.1h1.3l6.1,8.7l6.1-8.7h1.3v15.6h-1.3
			v-9.4c0-1.4,0-2.7,0-4l0,0c-0.7,1.1-1.6,2.3-2.3,3.4l-3.7,5.3L82.1,85.8z"/>
		<path class="st0" d="M97,80.1h8.6v1.2h-7.3V87h6.5v1.2h-6.5v6.3h7.5v1.2H97V80.1z"/>
		<path class="st0" d="M108.9,80.1h4c2.5,0,4.4,0.5,5.9,1.6c1.9,1.4,3.1,3.6,3.1,6.2c0,2.5-1.1,4.6-2.7,5.9
			c-1.5,1.3-3.6,1.9-6.6,1.9h-3.7V80.1z M112.8,94.5c2.3,0,4.1-0.4,5.5-1.6c1.4-1.1,2.3-3,2.3-5c0-2.2-1-4.1-2.5-5.2
			c-1.4-1-3.1-1.4-5.3-1.4h-2.5v13.2H112.8z"/>
		<path class="st0" d="M124.8,80.1h1.3v15.6h-1.3V80.1z"/>
		<path class="st0" d="M134.8,80.1h1.3l6.5,15.6h-1.4l-1.9-4.7h-7.7l-1.9,4.7h-1.4L134.8,80.1z M137.1,86c-0.6-1.4-1.2-2.9-1.7-4.3
			h0c-0.5,1.4-1.1,2.7-1.7,4.3l-1.6,3.9h6.7L137.1,86z"/>
	</g>
	<g>
		<g>
			<path class="st0" d="M24.4,103.9h-3.2v-1.1h7.7v1.1h-3.2v8.5h-1.3V103.9z"/>
			<path class="st0" d="M30.2,102.8h5.6v1.1h-4.3v2.9h3.8v1.1h-3.8v3.3h4.4v1.1h-5.7V102.8z"/>
			<path class="st0" d="M42,102.7c1,0,2,0.3,2.7,0.7v1.4c-0.7-0.5-1.7-0.9-2.7-0.9c-2.2,0-3.7,1.7-3.7,3.8s1.5,3.8,3.9,3.8
				c1.1,0,2-0.4,2.8-1v1.4c-0.8,0.5-1.8,0.7-2.8,0.7c-2.9,0-5.1-2.1-5.1-4.9C37,104.9,39,102.7,42,102.7z"/>
			<path class="st0" d="M46.6,102.8h1.3v4.1h5.2v-4.1h1.3v9.6h-1.3V108h-5.2v4.4h-1.3V102.8z"/>
			<path class="st0" d="M56.6,112.4v-9.6h1.2l4,5.4c0.6,0.7,1.1,1.5,1.7,2.3l0,0c0-0.8,0-1.8,0-2.7v-4.9h1.2v9.6h-1.2l-4-5.4
				c-0.6-0.7-1.1-1.5-1.7-2.3l0,0c0,0.8,0,1.8,0,2.7v4.9H56.6z"/>
			<path class="st0" d="M71.2,102.7c2.8,0,4.9,2.2,4.9,5c0,2.8-2.1,5-4.9,5c-2.8,0-4.9-2.2-4.9-5C66.3,104.8,68.4,102.7,71.2,102.7z
				 M71.2,111.4c2.1,0,3.6-1.7,3.6-3.8c0-2.1-1.5-3.8-3.6-3.8s-3.6,1.7-3.6,3.8C67.6,109.7,69.1,111.4,71.2,111.4z"/>
			<path class="st0" d="M77.7,102.8H79v8.5h4.6v1.1h-5.8V102.8z"/>
			<path class="st0" d="M89,102.7c2.8,0,4.9,2.2,4.9,5c0,2.8-2.1,5-4.9,5s-4.9-2.2-4.9-5C84.1,104.8,86.2,102.7,89,102.7z M89,111.4
				c2.1,0,3.6-1.7,3.6-3.8c0-2.1-1.5-3.8-3.6-3.8c-2.1,0-3.6,1.7-3.6,3.8C85.3,109.7,86.9,111.4,89,111.4z"/>
			<path class="st0" d="M100,102.7c1.3,0,2.3,0.4,3,0.8v1.4c-0.8-0.6-1.8-1.1-3-1.1c-2.3,0-3.8,1.7-3.8,3.8c0,2.1,1.4,3.8,3.8,3.8
				c0.7,0,1.4-0.2,2-0.5v-2.3h-2.2v-1.1h3.4v4c-0.9,0.6-2.1,1-3.3,1c-2.9,0-5-2.1-5-4.9C95,104.8,97,102.7,100,102.7z"/>
			<path class="st0" d="M105.3,102.8h1.3v9.6h-1.3V102.8z"/>
			<path class="st0" d="M108.7,102.8h5.6v1.1H110v2.9h3.8v1.1H110v3.3h4.4v1.1h-5.7V102.8z"/>
			<path class="st0" d="M115.8,110.4c0.9,0.7,2.1,1,2.9,1c1.1,0,2-0.5,2-1.6c0-1.2-1.1-1.5-2.4-1.8c-1.4-0.4-2.7-0.9-2.7-2.7
				c0-1.7,1.2-2.7,3.1-2.7c0.9,0,2,0.2,2.8,0.7v1.3c-0.9-0.6-2-0.9-2.8-0.9c-1.1,0-1.8,0.5-1.8,1.5c0,1.2,1.1,1.4,2.3,1.7
				c1.4,0.4,2.8,1,2.8,2.8c0,1.8-1.3,2.8-3.2,2.8c-0.9,0-2.1-0.3-2.9-0.8V110.4z"/>
		</g>
	</g>
	<g>
		<defs>
			<circle id="SVGID_1_" cx="71.6" cy="33" r="31.8"/>
		</defs>
		<defs>
			<rect id="SVGID_2_" x="39.8" y="1.2" width="63.6" height="63.6"/>
		</defs>
		<clipPath id="SVGID_3_">
			<use xlink:href="#SVGID_1_"  style="overflow:visible;"/>
		</clipPath>
		<clipPath id="SVGID_4_" class="st1">
			<use xlink:href="#SVGID_2_"  style="overflow:visible;"/>
		</clipPath>
		<g class="st2">
			<path class="st0" d="M94,61.2c3.2-2,8.2-3.5,12.8-4.1v-3.2c-3.5,1.7-9.2,3-13.3,2.8c-4.2-0.4-4.7-2.6-1.4-4.5
				c3.1-1.7,8.9-2.6,13.1-2.2c0.6,0,1.1,0.1,1.6,0.2V-2.5H36.1v70.6h40c0.1-0.1,0.2-0.2,0.4-0.3c1.8-1.2,4.8-2.1,6.7-2
				c1.9,0.1,2.1,1,0.4,2.2h23.2v-4.2c-3.8,1.4-8,2.4-11.3,2.6C90.1,66.6,89.6,64,94,61.2z M63.8,11.8c1-0.3,2.3,0.6,3.1,2
				c0.8,1.4,0.6,2.7-0.4,3.1c-1,0.4-2.5-0.4-3.2-1.8C62.5,13.7,62.7,12.2,63.8,11.8z M61.2,23.3c1.5-0.7,3.6,0.1,4.8,1.6
				c1.2,1.5,1,3.2-0.5,3.9c-1.6,0.8-3.9,0.2-5.1-1.3C59.2,26,59.6,24,61.2,23.3z M58.4,34.9c2.2-1.2,5.2-0.8,7,0.8
				c1.8,1.5,1.6,3.6-0.5,4.8c-2.2,1.3-5.6,1.2-7.5-0.3C55.6,38.7,56.1,36.2,58.4,34.9z M55.3,46.8c3-1.8,7.3-1.9,9.7-0.4
				c2.6,1.4,2.4,3.9-0.6,5.7c-3.1,2-7.8,2.6-10.4,1.2C51.5,51.7,52.2,48.7,55.3,46.8z M64.4,63.4c-4.1,2.8-10.5,4.4-14.1,3.2
				c-3.4-1.3-2.5-4.9,1.6-7.8c4-2.7,9.7-3.5,13.1-2.2C68.5,57.8,68.4,60.7,64.4,63.4z M71.6,16.7c2.1-0.4,5.5,2.3,8,5.5
				c2.7,3,3.4,5.3,1.3,5.7c-2.3,0.6-6.7-1-9.3-4C69.1,20.6,69.3,17.3,71.6,16.7z M72.2,28.3c2.3-0.8,6,0.6,8.5,2.8
				c2.7,2.1,3.3,4.1,1,5c-2.4,1-6.8,0.3-9.5-1.7C69.7,32.1,69.8,29.3,72.2,28.3z M73,38.7c2.3-1.1,6.1-0.6,8.6,0.8
				c2.6,1.3,3.1,3.1,0.8,4.2c-2.4,1.2-6.7,1.3-9.3-0.1C70.6,42.2,70.6,39.9,73,38.7z M74,48.7c2.2-1.3,5.9-1.4,8.3-0.6
				c2.5,0.8,2.8,2.3,0.6,3.6c-2.3,1.3-6.3,1.9-8.7,1.1C71.7,51.9,71.8,50,74,48.7z M83.3,59.8c-2.1,1.3-5.7,2.2-7.9,1.8
				c-2.2-0.4-2.2-1.9-0.1-3.3c2-1.3,5.4-1.9,7.6-1.5C85.1,57.3,85.3,58.5,83.3,59.8z M85.1,25.7c0.6,0.1,2,1,3.1,2
				c1.1,1,1.6,1.7,0.9,1.6c-0.7,0-2.1-0.8-3.2-1.8C84.8,26.5,84.5,25.7,85.1,25.7z M87.3,32c1-0.2,3.1,0.6,4.8,1.6
				c1.7,1,2.3,1.8,1.2,2c-1.1,0.2-3.4-0.3-5.1-1.3C86.6,33.4,86.2,32.3,87.3,32z M89.2,38.5c1.6-0.6,4.7-0.1,7,0.8
				c2.4,0.9,3.2,1.9,1.6,2.5c-1.7,0.6-5.1,0.6-7.5-0.3C88,40.6,87.5,39.2,89.2,38.5z M90.8,45.2c2.3-1.1,6.6-1.2,9.7-0.4
				c3.3,0.6,4.3,1.8,2,2.9c-2.4,1.2-7.1,1.8-10.4,1.2C88.9,48.2,88.4,46.4,90.8,45.2z"/>
		</g>
	</g>
</g>
</svg>
